<?xml version="1.0" encoding="UTF-8"?>
<svg xmlns="http://www.w3.org/2000/svg" xmlns:xlink="http://www.w3.org/1999/xlink" width="1600px" height="px" viewBox="0 0 1598 653" version="1.1">
<defs>
<filter id="alpha" filterUnits="objectBoundingBox" x="0%" y="0%" width="100%" height="100%">
  <feColorMatrix type="matrix" in="SourceGraphic" values="0 0 0 0 1 0 0 0 0 1 0 0 0 0 1 0 0 0 1 0"/>
</filter>
<mask id="mask0">
  <g filter="url(#alpha)">
<rect x="0" y="0" width="1598" height="653" style="fill:rgb(0%,0%,0%);fill-opacity:0.101961;stroke:none;"/>
  </g>
</mask>
<clipPath id="clip1">
  <rect x="0" y="0" width="1598" height="653"/>
</clipPath>
<g id="surface5" clip-path="url(#clip1)">
<path style=" stroke:none;fill-rule:nonzero;fill:rgb(0%,0%,0%);fill-opacity:1;" d="M 1433.527344 13.5625 C 1433.214844 14.808594 1433.214844 16.054688 1433.527344 17.300781 C 1433.527344 17.300781 1437.574219 43.792969 1432.902344 55.636719 L 1241.019531 555.261719 C 1227.3125 592.039062 1245.691406 632.867188 1282.449219 646.898438 C 1319.207031 660.917969 1360.011719 642.84375 1374.65625 606.378906 L 1566.539062 106.75 C 1570.273438 97.089844 1591.769531 78.078125 1591.769531 78.078125 C 1592.707031 77.140625 1593.640625 76.207031 1594.261719 75.273438 L 1594.261719 74.960938 C 1594.261719 74.648438 1594.574219 74.648438 1594.574219 74.335938 C 1599.558594 61.558594 1567.472656 37.246094 1523.242188 20.105469 C 1479.003906 2.960938 1438.824219 -0.46875 1433.839844 12.625 C 1433.839844 12.625 1433.527344 12.9375 1433.527344 13.5625 Z M 1433.527344 13.5625 "/>
</g>
<linearGradient id="linear0" gradientUnits="userSpaceOnUse" x1="0.23962" y1="0.46043" x2="0.68784" y2="0.55602" gradientTransform="matrix(358.210938,0,0,646.894531,1230.933594,0.347656)">
<stop offset="0" style="stop-color:rgb(56.862745%,56.862745%,56.862745%);stop-opacity:1;"/>
<stop offset="1" style="stop-color:rgb(100%,100%,100%);stop-opacity:1;"/>
</linearGradient>
<linearGradient id="linear1" gradientUnits="userSpaceOnUse" x1="0.26427" y1="0.42381" x2="0.67132" y2="0.51906" gradientTransform="matrix(238.792969,0,0,392.734375,1249.558594,235.164063)">
<stop offset="0" style="stop-color:rgb(60%,0%,0%);stop-opacity:1;"/>
<stop offset="1" style="stop-color:rgb(90.980392%,0%,0%);stop-opacity:1;"/>
</linearGradient>
<mask id="mask1">
  <g filter="url(#alpha)">
<rect x="0" y="0" width="1598" height="653" style="fill:rgb(0%,0%,0%);fill-opacity:0.301961;stroke:none;"/>
  </g>
</mask>
<clipPath id="clip2">
  <rect x="0" y="0" width="1598" height="653"/>
</clipPath>
<g id="surface8" clip-path="url(#clip2)">
<path style=" stroke:none;fill-rule:nonzero;fill:rgb(100%,100%,100%);fill-opacity:1;" d="M 1426.628906 12.898438 C 1426.628906 12.898438 1430.652344 39.320312 1426.007812 51.128906 L 1235.378906 549.347656 C 1221.765625 586.019531 1240.023438 626.734375 1276.539062 640.722656 C 1282.730469 643.207031 1289.226562 644.761719 1295.726562 645.074219 C 1270.648438 625.917969 1260.984375 592.640625 1271.894531 563.023438 L 1458.816406 74.75 C 1458.816406 74.75 1433.128906 50.816406 1426.628906 12.898438 Z M 1426.628906 12.898438 "/>
</g>
<mask id="mask2">
  <g filter="url(#alpha)">
<rect x="0" y="0" width="1598" height="653" style="fill:rgb(0%,0%,0%);fill-opacity:0.501961;stroke:none;"/>
  </g>
</mask>
<clipPath id="clip3">
  <rect x="0" y="0" width="1598" height="653"/>
</clipPath>
<g id="surface11" clip-path="url(#clip3)">
<path style=" stroke:none;fill-rule:nonzero;fill:rgb(100%,100%,100%);fill-opacity:1;" d="M 1370.929688 334.269531 C 1370.929688 331.179688 1368.433594 328.675781 1365.355469 328.675781 C 1362.28125 328.675781 1359.785156 331.179688 1359.785156 334.269531 C 1359.785156 337.359375 1362.28125 339.863281 1365.355469 339.863281 C 1368.433594 339.863281 1370.929688 337.359375 1370.929688 334.269531 Z M 1370.929688 334.269531 "/>
<path style=" stroke:none;fill-rule:nonzero;fill:rgb(100%,100%,100%);fill-opacity:1;" d="M 1409.917969 374.363281 C 1409.917969 369.730469 1406.179688 365.972656 1401.566406 365.972656 C 1396.949219 365.972656 1393.210938 369.730469 1393.210938 374.363281 C 1393.210938 379 1396.949219 382.753906 1401.566406 382.753906 C 1406.179688 382.753906 1409.917969 379 1409.917969 374.363281 Z M 1409.917969 374.363281 "/>
<path style=" stroke:none;fill-rule:nonzero;fill:rgb(100%,100%,100%);fill-opacity:1;" d="M 1361.953125 422.226562 C 1361.953125 413.472656 1354.886719 406.375 1346.167969 406.375 C 1337.453125 406.375 1330.386719 413.472656 1330.386719 422.226562 C 1330.386719 430.980469 1337.453125 438.078125 1346.167969 438.078125 C 1354.886719 438.078125 1361.953125 430.980469 1361.953125 422.226562 Z M 1361.953125 422.226562 "/>
<path style=" stroke:none;fill-rule:nonzero;fill:rgb(100%,100%,100%);fill-opacity:1;" d="M 1329.148438 451.445312 C 1329.148438 446.808594 1325.410156 443.050781 1320.792969 443.050781 C 1316.179688 443.050781 1312.4375 446.808594 1312.4375 451.445312 C 1312.4375 456.078125 1316.179688 459.835938 1320.792969 459.835938 C 1325.410156 459.835938 1329.148438 456.078125 1329.148438 451.445312 Z M 1329.148438 451.445312 "/>
<path style=" stroke:none;fill-rule:nonzero;fill:rgb(100%,100%,100%);fill-opacity:1;" d="M 1359.476562 513.601562 C 1359.476562 510.511719 1356.980469 508.007812 1353.90625 508.007812 C 1350.828125 508.007812 1348.335938 510.511719 1348.335938 513.601562 C 1348.335938 516.691406 1350.828125 519.195312 1353.90625 519.195312 C 1356.980469 519.195312 1359.476562 516.691406 1359.476562 513.601562 Z M 1359.476562 513.601562 "/>
</g>
<mask id="mask3">
  <g filter="url(#alpha)">
<rect x="0" y="0" width="1598" height="653" style="fill:rgb(0%,0%,0%);fill-opacity:0.101961;stroke:none;"/>
  </g>
</mask>
<clipPath id="clip4">
  <rect x="0" y="0" width="1598" height="653"/>
</clipPath>
<g id="surface14" clip-path="url(#clip4)">
<path style=" stroke:none;fill-rule:nonzero;fill:rgb(0%,0%,0%);fill-opacity:1;" d="M 375.984375 303.5 C 384.390625 310.339844 399.65625 306.296875 409.933594 295.109375 C 420.839844 283.296875 422.394531 268.070312 413.984375 261.230469 C 405.574219 254.390625 390.3125 258.433594 380.03125 270.246094 C 369.128906 282.054688 367.257812 296.976562 375.984375 303.503906 Z M 350.75 325.566406 C 348.566406 325.566406 344.519531 329.605469 347.945312 331.164062 C 352.617188 332.714844 354.800781 336.753906 354.800781 342.351562 C 350.75 365.660156 321.777344 392.082031 310.566406 401.09375 C 307.761719 403.886719 311.8125 410.105469 314.617188 407.933594 C 320.84375 402.957031 333.929688 392.703125 344.519531 379.027344 C 327.074219 417.875 292.8125 468.226562 279.726562 485.941406 C 228.640625 556.496094 151.078125 621.453125 97.8125 621.453125 C 55.132812 621.453125 19.003906 592.546875 11.214844 550.28125 C 10.589844 545.613281 4.359375 544.683594 5.605469 550.898438 C 15.261719 609.019531 60.117188 631.707031 114.320312 631.707031 C 173.816406 631.707031 243.59375 588.816406 282.21875 544.683594 C 344.519531 473.511719 384.703125 391.457031 374.113281 345.148438 C 369.753906 328.054688 357.601562 325.253906 350.75 325.566406 Z M 733.585938 480.660156 C 750.09375 476.617188 763.488281 467.605469 763.488281 453.308594 C 763.488281 451.753906 760.683594 451.753906 760.683594 453.308594 C 760.683594 461.699219 751.027344 468.847656 740.125 470.402344 C 714.582031 474.441406 664.117188 444.605469 640.445312 413.835938 C 665.988281 423.46875 718.011719 409.484375 742.617188 391.769531 C 765.359375 375.296875 774.390625 357.269531 775.949219 342.660156 C 778.753906 318.417969 752.273438 304.125 715.203125 318.417969 C 691.53125 328.054688 663.1875 348.878906 633.59375 388.039062 C 664.742188 336.753906 726.109375 252.839844 786.226562 199.382812 C 859.429688 134.425781 901.796875 146.855469 836.070312 215.855469 C 808.96875 244.136719 757.882812 280.8125 722.679688 296.664062 C 711.78125 301.328125 717.074219 307.539062 724.863281 304.121094 C 762.242188 287.652344 812.082031 253.769531 842.300781 225.488281 C 931.386719 140.019531 856.9375 75.679688 758.503906 166.125 C 691.53125 227.664062 647.921875 292 609.917969 375.609375 C 596.835938 391.457031 587.179688 404.511719 575.34375 414.457031 C 573.78125 415.699219 572.851562 416.941406 571.914062 418.1875 C 539.207031 446.160156 487.8125 484.078125 455.726562 484.386719 C 432.984375 485.011719 423.328125 467.914062 427.378906 445.851562 C 433.609375 411.347656 469.429688 370.632812 499.957031 356.648438 C 539.519531 338.621094 562.878906 373.742188 510.859375 401.710938 C 490.925781 411.96875 467.253906 417.5625 457.597656 417.5625 C 446.382812 417.5625 447.316406 422.226562 456.972656 422.539062 C 472.859375 423.160156 498.402344 416.324219 515.222656 408.550781 C 568.488281 383.066406 571.914062 335.511719 513.976562 333.960938 C 451.054688 331.785156 375.671875 385.242188 376.292969 452.6875 C 376.917969 483.144531 401.214844 499.617188 434.542969 499.617188 C 490.300781 498.992188 539.832031 456.726562 580.640625 419.429688 C 586.554688 414.457031 592.160156 409.171875 597.769531 403.578125 C 583.441406 439.632812 576.277344 473.199219 579.703125 498.0625 C 581.882812 516.089844 592.160156 524.480469 600.261719 531.320312 C 601.820312 532.5625 605.246094 531.320312 603.066406 527.898438 C 591.230469 513.914062 594.65625 471.957031 610.855469 431.242188 C 624.558594 458.59375 677.828125 493.089844 733.585938 480.660156 Z M 666.613281 362.863281 C 731.71875 304.746094 757.257812 356.648438 715.828125 388.347656 C 694.335938 404.820312 651.660156 417.253906 638.265625 409.171875 L 635.460938 407.621094 C 633.902344 404.820312 632.035156 402.023438 630.789062 399.230469 C 641.691406 385.863281 654.152344 374.050781 666.613281 362.863281 Z M 1028.574219 296.664062 C 1054.742188 299.457031 1043.835938 267.757812 1017.359375 275.839844 C 1005.527344 279.257812 994 301.949219 985.589844 321.527344 C 959.425781 360.378906 915.8125 413.527344 885.285156 441.496094 C 858.183594 464.808594 833.265625 471.023438 863.789062 427.511719 C 876.253906 410.105469 892.140625 391.457031 901.171875 372.808594 C 922.667969 325.878906 876.875 305.054688 839.804688 333.335938 C 818.3125 349.808594 789.34375 383.6875 766.601562 402.335938 C 760.375 407.308594 761.929688 414.765625 768.164062 409.792969 C 786.226562 395.1875 818 361.621094 845.414062 342.039062 C 868.152344 324.636719 877.1875 335.824219 864.101562 350.429688 C 846.039062 371.253906 814.261719 407.621094 806.167969 430.617188 C 794.953125 465.117188 808.34375 480.347656 831.085938 480.347656 C 862.234375 480.347656 908.648438 431.863281 939.796875 393.324219 C 950.078125 380.269531 961.289062 365.039062 970.949219 350.429688 C 943.847656 402.957031 915.5 456.101562 880.300781 504.28125 C 830.460938 572.035156 768.160156 623.007812 708.976562 623.007812 C 666.300781 623.007812 629.542969 594.101562 621.757812 551.832031 C 621.132812 547.171875 615.527344 546.234375 616.148438 552.453125 C 625.804688 610.570312 670.660156 633.261719 724.863281 633.261719 C 784.359375 633.261719 841.675781 598.761719 881.859375 556.496094 C 962.851562 471.019531 972.503906 374.984375 997.425781 321.214844 C 1009.261719 296.664062 1019.855469 295.734375 1028.574219 296.664062 Z M 1358.144531 214.605469 C 1369.980469 194.40625 1369.359375 178.554688 1341.632812 178.554688 C 1320.761719 179.175781 1282.761719 193.78125 1265.003906 207.457031 C 1260.957031 211.5 1262.824219 213.671875 1267.808594 211.5 C 1271.234375 210.257812 1275.285156 208.078125 1279.023438 206.527344 C 1298.957031 195.648438 1290.859375 218.339844 1286.5 226.730469 C 1262.824219 268.066406 1220.773438 326.183594 1198.65625 355.089844 C 1188.15625 369.226562 1176.820312 382.71875 1164.703125 395.492188 C 1143.519531 415.699219 1101.46875 451.441406 1069.382812 463.25 C 966.273438 501.789062 1097.730469 326.496094 1108.632812 312.199219 C 1132.929688 281.742188 1187.4375 228.59375 1203.949219 201.863281 C 1215.789062 181.660156 1215.167969 165.8125 1187.4375 165.8125 C 1166.570312 166.4375 1128.570312 181.042969 1110.8125 194.71875 C 1106.761719 198.757812 1108.632812 200.929688 1113.617188 198.757812 C 1117.042969 197.515625 1121.089844 195.339844 1124.828125 193.78125 C 1144.765625 182.90625 1136.667969 205.59375 1132.304688 213.988281 C 1108.632812 255.324219 1066.582031 313.441406 1044.460938 342.347656 C 1026.398438 366.589844 1004.28125 390.832031 987.144531 404.507812 C 980.296875 410.101562 984.34375 415.386719 991.195312 410.722656 C 997.425781 406.683594 1006.460938 397.671875 1016.738281 387.101562 C 998.046875 424.398438 982.785156 476.925781 1032.003906 483.140625 C 1074.054688 488.734375 1123.898438 446.15625 1156.289062 414.453125 L 1167.816406 402.953125 L 1170.621094 400.15625 C 1151.929688 437.453125 1136.667969 489.980469 1185.882812 496.195312 C 1239.773438 503.65625 1306.746094 431.238281 1332.605469 404.507812 C 1337.585938 399.535156 1336.027344 390.832031 1327.617188 399.535156 C 1312.355469 415.386719 1260.644531 462.316406 1223.265625 476.300781 C 1120.15625 514.84375 1251.613281 339.550781 1262.511719 325.253906 C 1287.125 294.175781 1341.632812 241.027344 1358.144531 214.609375 Z M 1358.144531 214.605469 "/>
</g>
<linearGradient id="linear2" gradientUnits="userSpaceOnUse" x1="0.5" y1="0.99822" x2="0.5" y2="-0.00044" gradientTransform="matrix(1359.507813,0,0,510.667969,0.3125,117.3125)">
<stop offset="0" style="stop-color:rgb(10.196078%,10.196078%,10.196078%);stop-opacity:1;"/>
<stop offset="0.4026" style="stop-color:rgb(29.019608%,29.019608%,29.803922%);stop-opacity:1;"/>
<stop offset="1" style="stop-color:rgb(20%,20%,20%);stop-opacity:1;"/>
</linearGradient>
</defs>
<g id="surface1">
<use xlink:href="#surface5" mask="url(#mask0)"/>
<path style=" stroke:none;fill-rule:nonzero;fill:url(#linear0);" d="M 1427.917969 9.195312 C 1427.605469 10.445312 1427.605469 11.691406 1427.917969 12.9375 C 1427.917969 12.9375 1431.96875 39.429688 1427.292969 51.273438 L 1235.414062 550.898438 C 1221.710938 587.675781 1240.089844 628.507812 1276.84375 642.53125 C 1313.601562 656.554688 1354.40625 638.480469 1369.050781 602.015625 L 1560.933594 102.386719 C 1564.671875 92.726562 1586.164062 73.714844 1586.164062 73.714844 C 1587.101562 72.777344 1588.039062 71.84375 1588.660156 70.910156 L 1588.660156 70.597656 C 1588.660156 70.285156 1588.96875 70.285156 1588.96875 69.972656 C 1593.953125 57.195312 1561.871094 32.886719 1517.636719 15.742188 C 1473.398438 -1.402344 1433.214844 -4.828125 1428.230469 8.261719 C 1428.230469 8.574219 1428.230469 8.886719 1427.917969 9.199219 Z M 1427.917969 9.195312 "/>
<path style=" stroke:none;fill-rule:nonzero;fill:url(#linear1);" d="M 1488.351562 235.164062 L 1349.734375 595.46875 C 1339.453125 621.339844 1309.859375 634.738281 1283.382812 624.457031 C 1256.90625 614.167969 1242.886719 583.9375 1252.546875 558.066406 L 1341.011719 327.734375 C 1341.011719 327.734375 1351.914062 309.96875 1373.722656 297.191406 C 1395.523438 284.410156 1413.28125 287.214844 1437.265625 276.617188 C 1461.5625 266.023438 1488.351562 235.164062 1488.351562 235.164062 Z M 1488.351562 235.164062 "/>
<path style=" stroke:none;fill-rule:nonzero;fill:rgb(20%,20%,20%);fill-opacity:1;" d="M 1555.570312 59.550781 C 1558.335938 52.339844 1538.457031 37.953125 1511.183594 27.417969 C 1483.90625 16.878906 1459.554688 14.183594 1456.796875 21.390625 C 1454.035156 28.601562 1473.910156 42.984375 1501.183594 53.523438 C 1528.460938 64.0625 1552.8125 66.757812 1555.570312 59.550781 Z M 1555.570312 59.550781 "/>
<use xlink:href="#surface8" mask="url(#mask1)"/>
<use xlink:href="#surface11" mask="url(#mask2)"/>
<use xlink:href="#surface14" mask="url(#mask3)"/>
<path style=" stroke:none;fill-rule:nonzero;fill:url(#linear2);" d="M 370.375 298.214844 C 378.785156 305.054688 394.046875 301.015625 404.328125 289.824219 C 415.230469 278.015625 416.789062 262.785156 408.375 255.949219 C 399.96875 249.109375 384.703125 253.148438 374.425781 264.960938 C 363.523438 276.769531 361.960938 291.378906 370.375 298.21875 Z M 345.457031 320.285156 C 343.273438 320.285156 339.226562 324.324219 342.652344 325.878906 C 347.324219 327.433594 349.503906 331.472656 349.503906 337.066406 C 345.457031 360.378906 316.480469 386.796875 305.269531 395.808594 C 302.46875 398.609375 306.519531 404.820312 309.320312 402.648438 C 315.550781 397.675781 328.632812 387.417969 339.226562 373.742188 C 321.777344 412.59375 287.515625 462.941406 274.429688 480.660156 C 223.34375 551.210938 145.78125 616.167969 92.515625 616.167969 C 49.839844 616.167969 13.707031 587.261719 5.917969 544.996094 C 5.292969 540.332031 -0.933594 539.398438 0.3125 545.613281 C 9.96875 603.734375 54.824219 626.421875 109.027344 626.421875 C 168.523438 626.421875 238.296875 583.53125 276.925781 539.398438 C 339.222656 468.226562 379.410156 386.175781 368.816406 339.867188 C 364.144531 322.457031 352.304688 319.660156 345.457031 320.285156 Z M 727.976562 475.375 C 744.488281 471.332031 757.882812 462.320312 757.882812 448.023438 C 757.882812 446.46875 755.078125 446.46875 755.078125 448.023438 C 755.078125 456.414062 745.421875 463.5625 734.519531 465.117188 C 708.976562 469.15625 658.511719 439.324219 634.839844 408.550781 C 660.382812 418.1875 712.402344 404.199219 737.011719 386.484375 C 759.753906 370.011719 768.785156 351.984375 770.34375 337.378906 C 773.144531 313.132812 746.667969 298.839844 709.597656 313.132812 C 685.925781 322.769531 657.578125 343.59375 627.984375 382.753906 C 659.132812 331.472656 720.5 247.554688 780.621094 194.097656 C 853.824219 129.140625 896.1875 141.570312 830.460938 210.570312 C 803.359375 238.851562 752.277344 275.527344 717.074219 291.378906 C 706.171875 296.042969 711.46875 302.257812 719.257812 298.835938 C 756.636719 282.367188 806.476562 248.488281 836.691406 220.203125 C 925.78125 134.734375 851.332031 70.398438 752.898438 160.84375 C 685.925781 222.070312 642.316406 286.71875 604.3125 370.324219 C 591.230469 386.175781 581.570312 399.230469 569.734375 409.171875 C 568.175781 410.414062 567.242188 411.660156 566.308594 412.902344 C 533.601562 440.875 482.203125 478.792969 450.117188 479.101562 C 427.378906 479.726562 417.722656 462.628906 421.773438 440.566406 C 428 406.066406 463.824219 365.347656 494.351562 351.363281 C 533.914062 333.339844 557.273438 368.460938 505.253906 396.429688 C 485.316406 406.6875 461.644531 412.28125 451.988281 412.28125 C 440.773438 412.28125 441.710938 416.941406 451.363281 417.253906 C 467.25 417.875 492.796875 411.039062 509.617188 403.265625 C 562.882812 377.785156 566.308594 330.230469 508.367188 328.675781 C 445.445312 326.5 370.0625 379.957031 370.6875 447.402344 C 371.308594 477.859375 395.605469 494.332031 428.9375 494.332031 C 484.695312 493.710938 534.226562 451.445312 575.03125 414.148438 C 580.949219 409.171875 586.554688 403.886719 592.164062 398.296875 C 577.832031 434.347656 570.671875 467.914062 574.09375 492.777344 C 576.277344 510.808594 586.554688 519.199219 594.65625 526.039062 C 596.214844 527.277344 599.640625 526.039062 597.457031 522.617188 C 585.625 508.628906 589.046875 466.671875 605.246094 425.957031 C 619.261719 453.308594 672.53125 487.808594 727.976562 475.375 Z M 661.003906 357.265625 C 726.109375 299.148438 751.652344 351.050781 710.222656 382.753906 C 688.730469 399.230469 646.054688 411.660156 632.65625 403.578125 L 629.855469 402.023438 C 628.292969 399.230469 626.429688 396.429688 625.183594 393.632812 C 636.085938 380.578125 648.542969 368.460938 661.003906 357.269531 Z M 1022.96875 291.382812 C 1049.132812 294.179688 1038.230469 262.476562 1011.753906 270.558594 C 999.917969 273.976562 988.390625 296.667969 979.984375 316.246094 C 953.816406 355.097656 910.203125 408.246094 879.679688 436.214844 C 852.578125 459.527344 827.65625 465.742188 858.183594 422.230469 C 870.644531 404.824219 886.53125 386.179688 895.566406 367.527344 C 917.058594 320.597656 871.269531 299.773438 834.199219 328.054688 C 812.703125 344.527344 783.738281 378.40625 760.996094 397.054688 C 754.769531 402.027344 756.324219 409.484375 762.554688 404.511719 C 780.621094 389.90625 812.394531 356.339844 839.804688 336.757812 C 862.546875 319.355469 871.578125 330.542969 858.496094 345.148438 C 840.429688 365.976562 808.65625 402.339844 800.558594 425.339844 C 789.34375 459.839844 802.738281 475.066406 825.476562 475.066406 C 856.625 475.066406 903.042969 426.582031 934.191406 388.042969 C 944.472656 374.988281 955.683594 359.757812 965.339844 345.148438 C 938.242188 397.675781 909.894531 450.824219 874.695312 499 C 824.851562 566.753906 762.554688 617.726562 703.371094 617.726562 C 660.695312 617.726562 623.9375 588.820312 616.148438 546.550781 C 615.523438 541.890625 609.917969 540.957031 610.542969 547.171875 C 620.199219 605.289062 665.054688 627.980469 719.257812 627.980469 C 778.753906 627.980469 836.070312 593.484375 876.253906 551.214844 C 957.242188 465.742188 966.898438 369.707031 991.816406 315.933594 C 1003.65625 291.382812 1014.558594 290.140625 1022.964844 291.382812 Z M 1352.539062 209.015625 C 1364.375 188.816406 1363.753906 172.960938 1336.027344 172.960938 C 1315.15625 173.585938 1277.15625 188.191406 1259.398438 201.867188 C 1255.347656 205.910156 1257.21875 208.082031 1262.203125 205.910156 C 1265.628906 204.667969 1269.675781 202.488281 1273.414062 200.933594 C 1293.351562 190.058594 1285.253906 212.746094 1280.890625 221.140625 C 1257.21875 262.472656 1215.167969 320.59375 1193.046875 349.5 C 1182.550781 363.636719 1171.210938 377.128906 1159.097656 389.902344 C 1137.914062 410.105469 1095.863281 445.847656 1063.777344 457.660156 C 960.667969 496.199219 1092.125 320.90625 1103.027344 306.605469 C 1127.324219 276.148438 1181.832031 223.003906 1198.34375 196.273438 C 1210.183594 176.070312 1209.558594 160.222656 1181.832031 160.222656 C 1160.960938 160.84375 1122.960938 175.449219 1105.203125 189.125 C 1101.15625 193.164062 1103.027344 195.339844 1108.011719 193.164062 C 1111.433594 191.921875 1115.484375 189.75 1119.222656 188.191406 C 1139.160156 177.316406 1131.058594 200.003906 1126.699219 208.394531 C 1103.027344 249.734375 1060.972656 307.851562 1038.855469 336.753906 C 1020.789062 361 998.671875 385.242188 981.539062 398.917969 C 974.6875 404.511719 978.738281 409.792969 985.589844 405.132812 C 991.816406 401.09375 1000.851562 392.078125 1011.132812 381.511719 C 992.441406 418.808594 977.175781 471.332031 1026.394531 477.550781 C 1068.445312 483.144531 1118.289062 440.5625 1150.683594 408.863281 L 1162.210938 397.363281 L 1165.015625 394.566406 C 1146.324219 431.863281 1131.058594 484.386719 1180.277344 490.605469 C 1234.167969 498.0625 1301.140625 425.648438 1326.996094 398.917969 C 1331.976562 393.945312 1330.417969 385.242188 1322.011719 393.945312 C 1306.75 409.792969 1255.039062 456.726562 1217.65625 470.710938 C 1114.550781 509.25 1246.003906 333.960938 1256.90625 319.660156 C 1281.828125 288.582031 1336.023438 235.4375 1352.535156 209.015625 Z M 1352.539062 209.015625 "/>
</g>
</svg>
